<svg width="286" height="43" viewBox="0 0 286 43" fill="none" xmlns="http://www.w3.org/2000/svg">
<path d="M0.000351772 42.2402V40.2602C1.48035 40.2602 2.54035 40.1802 3.18035 40.0202C3.86035 39.8202 4.28035 39.4802 4.44035 39.0002C4.64035 38.5202 4.74035 37.8202 4.74035 36.9002V8.04023C4.74035 7.08023 4.64035 6.36023 4.44035 5.88023C4.24035 5.36023 3.80035 5.02023 3.12035 4.86023C2.48035 4.70023 1.44035 4.62023 0.000351772 4.62023V2.64023H17.0404V4.62023C15.4804 4.62023 14.3404 4.70023 13.6204 4.86023C12.9404 5.02023 12.5004 5.36023 12.3004 5.88023C12.1404 6.36023 12.0604 7.08023 12.0604 8.04023V35.4002C12.0604 36.8802 12.2604 37.9402 12.6604 38.5802C13.0604 39.1802 13.7604 39.5402 14.7604 39.6602C15.7604 39.7802 17.1604 39.8402 18.9604 39.8402C21.1204 39.8402 22.8004 39.5802 24.0004 39.0602C25.2404 38.5002 26.2004 37.6002 26.8804 36.3602C27.6004 35.0802 28.2404 33.4002 28.8004 31.3202H30.3604L29.7004 42.2402H0.000351772ZM44.7454 42.9002C42.1854 42.9002 40.2254 42.1802 38.8654 40.7402C37.5454 39.3002 36.8854 37.2002 36.8854 34.4402V19.5602C36.8854 18.4402 36.7654 17.7002 36.5254 17.3402C36.2854 16.9802 35.8054 16.8002 35.0854 16.8002H33.2854V14.8202L42.0454 13.7402H43.7854V32.7002C43.7854 34.0602 43.9854 35.2002 44.3854 36.1202C44.7854 37.0402 45.3654 37.7602 46.1254 38.2802C46.9254 38.7602 47.8854 39.0002 49.0054 39.0002C49.8454 39.0002 50.6454 38.8202 51.4054 38.4602C52.2054 38.0602 52.9454 37.6002 53.6254 37.0802C54.3054 36.5202 54.8654 36.0002 55.3054 35.5202V38.0402C54.9054 38.4002 54.1854 38.9802 53.1454 39.7802C52.1454 40.5402 50.9254 41.2602 49.4854 41.9402C48.0454 42.5802 46.4654 42.9002 44.7454 42.9002ZM55.3054 42.2402V38.1002H55.1254V19.5602C55.1254 18.4402 55.0054 17.7002 54.7654 17.3402C54.5654 16.9802 54.1054 16.8002 53.3854 16.8002H51.5854V14.8202L60.3454 13.7402H62.0854V37.2602C62.0854 38.0602 62.1654 38.6802 62.3254 39.1202C62.5254 39.5602 62.8854 39.8602 63.4054 40.0202C63.9654 40.1802 64.8054 40.2602 65.9254 40.2602V42.2402H55.3054ZM82.8777 42.2402V40.2602H84.0177C84.6977 40.2602 85.0777 40.0802 85.1577 39.7202C85.2777 39.3202 85.1577 38.8402 84.7977 38.2802L71.4777 17.8802C70.9977 17.1602 70.4777 16.6802 69.9177 16.4402C69.3977 16.1602 68.5377 16.0202 67.3377 16.0202V14.0402H80.5377V16.0202H79.5777C79.0977 16.0202 78.7977 16.1802 78.6777 16.5002C78.5577 16.7802 78.6377 17.1402 78.9177 17.5802L92.3577 37.6202C92.9977 38.5802 93.6377 39.2602 94.2777 39.6602C94.9177 40.0602 95.9177 40.2602 97.2777 40.2602V42.2402H82.8777ZM67.3377 42.2402V40.2602C68.4977 40.2602 69.5177 40.0802 70.3977 39.7202C71.3177 39.3202 72.1577 38.6202 72.9177 37.6202L79.6377 29.1002L80.8377 31.2602L76.0977 38.0402C75.6977 38.6002 75.5777 39.1202 75.7377 39.6002C75.8977 40.0402 76.2977 40.2602 76.9377 40.2602H78.2577V42.2402H67.3377ZM83.7777 26.5802L82.5177 24.6002L87.2577 17.4602C87.5777 16.9402 87.6377 16.5802 87.4377 16.3802C87.2377 16.1402 86.9777 16.0202 86.6577 16.0202H85.2177V14.0402H95.0577V16.0202C94.2577 16.0202 93.5577 16.0802 92.9577 16.2002C92.3577 16.3202 91.8377 16.5202 91.3977 16.8002C90.9977 17.0802 90.6177 17.4602 90.2577 17.9402L83.7777 26.5802ZM110.555 42.8402C106.275 42.8402 103.055 41.6202 100.895 39.1802C98.7346 36.7402 97.6546 33.1002 97.6546 28.2602C97.6546 24.9402 98.1546 22.1802 99.1546 19.9802C100.155 17.7802 101.595 16.1402 103.475 15.0602C105.395 13.9802 107.735 13.4402 110.495 13.4402C112.855 13.4402 114.835 13.8002 116.435 14.5202C118.035 15.2402 119.315 16.2602 120.275 17.5802C121.235 18.8602 121.935 20.3602 122.375 22.0802C122.815 23.8002 123.035 25.6802 123.035 27.7202V28.5002H102.755V26.1002H115.715C115.715 24.0202 115.595 22.2202 115.355 20.7002C115.155 19.1402 114.695 17.9402 113.975 17.1002C113.295 16.2602 112.215 15.8402 110.735 15.8402C109.415 15.8402 108.315 16.2202 107.435 16.9802C106.595 17.7402 105.975 18.9402 105.575 20.5802C105.175 22.1802 104.975 24.2602 104.975 26.8202C104.975 28.6202 105.095 30.2802 105.335 31.8002C105.575 33.2802 105.975 34.5802 106.535 35.7002C107.135 36.7802 107.955 37.6202 108.995 38.2202C110.075 38.7802 111.435 39.0602 113.075 39.0602C114.435 39.0602 115.615 38.8602 116.615 38.4602C117.615 38.0202 118.475 37.4002 119.195 36.6002C119.915 35.8002 120.515 34.8202 120.995 33.6602L122.855 34.7402C122.335 36.0202 121.635 37.2802 120.755 38.5202C119.875 39.7602 118.615 40.8002 116.975 41.6402C115.375 42.4402 113.235 42.8402 110.555 42.8402ZM126.671 42.2402V40.2602C127.871 40.2602 128.731 40.1802 129.251 40.0202C129.811 39.8202 130.151 39.5002 130.271 39.0602C130.431 38.6202 130.511 38.0202 130.511 37.2602V19.9202C130.511 18.8402 130.391 18.1202 130.151 17.7602C129.951 17.3602 129.511 17.1602 128.831 17.1602H127.031V15.1202L135.671 13.7402H137.351V18.9602H137.531V37.2602C137.531 38.1002 137.631 38.7402 137.831 39.1802C138.071 39.5802 138.531 39.8602 139.211 40.0202C139.931 40.1802 141.031 40.2602 142.511 40.2602V42.2402H126.671ZM137.231 25.9202V19.4402C137.471 18.9202 137.791 18.3202 138.191 17.6402C138.591 16.9602 139.091 16.3002 139.691 15.6602C140.291 14.9802 141.011 14.4402 141.851 14.0402C142.731 13.6002 143.731 13.3802 144.851 13.3802C146.691 13.3802 147.991 13.9002 148.751 14.9402C149.511 15.9802 149.891 17.1402 149.891 18.4202C149.891 19.7002 149.551 20.7202 148.871 21.4802C148.231 22.2402 147.271 22.6202 145.991 22.6202C144.911 22.6202 144.051 22.3402 143.411 21.7802C142.811 21.2202 142.511 20.4402 142.511 19.4402C142.511 18.7202 142.631 18.1802 142.871 17.8202C143.111 17.4602 143.351 17.1802 143.591 16.9802C143.831 16.7402 143.951 16.5202 143.951 16.3202C143.951 16.2002 143.891 16.0802 143.771 15.9602C143.691 15.8002 143.491 15.7202 143.171 15.7202C142.651 15.7202 142.071 15.9802 141.431 16.5002C140.791 16.9802 140.171 17.6802 139.571 18.6002C138.971 19.5202 138.471 20.6002 138.071 21.8402C137.711 23.0402 137.531 24.3402 137.531 25.7402L137.231 25.9202ZM173.029 42.8402C172.069 42.8402 171.249 42.7402 170.569 42.5402C169.889 42.3802 169.369 42.0202 169.009 41.4602C168.649 40.8602 168.469 39.9802 168.469 38.8202V21.5402C168.429 19.9802 168.009 18.7602 167.209 17.8802C166.449 16.9602 165.009 16.5002 162.889 16.5002C162.129 16.5002 161.429 16.5802 160.789 16.7402C160.149 16.9002 159.649 17.1002 159.289 17.3402C158.929 17.5802 158.749 17.8202 158.749 18.0602C158.749 18.4602 158.889 18.8002 159.169 19.0802C159.449 19.3202 159.729 19.6002 160.009 19.9202C160.289 20.2402 160.429 20.7402 160.429 21.4202C160.429 22.4202 160.129 23.2202 159.529 23.8202C158.969 24.3802 158.169 24.6602 157.129 24.6602C156.089 24.6602 155.249 24.3402 154.609 23.7002C153.969 23.0602 153.649 22.2202 153.649 21.1802C153.649 19.8602 154.109 18.6402 155.029 17.5202C155.989 16.3602 157.389 15.4202 159.229 14.7002C161.069 13.9802 163.309 13.6202 165.949 13.6202C169.029 13.6202 171.349 14.2602 172.909 15.5402C174.469 16.7802 175.249 19.0802 175.249 22.4402V35.7602C175.249 37.3602 175.409 38.4402 175.729 39.0002C176.089 39.5602 176.649 39.8402 177.409 39.8402C177.769 39.8402 178.069 39.8002 178.309 39.7202C178.549 39.6002 178.809 39.4802 179.089 39.3602L179.689 40.9802C179.089 41.3402 178.269 41.7402 177.229 42.1802C176.189 42.6202 174.789 42.8402 173.029 42.8402ZM159.469 42.8402C157.429 42.8402 155.669 42.3402 154.189 41.3402C152.749 40.3402 152.029 38.8402 152.029 36.8402C152.029 34.9602 152.729 33.2402 154.129 31.6802C155.569 30.0802 157.609 28.7202 160.249 27.6002C162.889 26.4402 166.029 25.5802 169.669 25.0202V27.3002C165.949 28.0202 163.209 28.9602 161.449 30.1202C159.689 31.2802 158.809 32.8202 158.809 34.7402C158.809 35.9402 159.169 36.8802 159.889 37.5602C160.609 38.2002 161.729 38.5202 163.249 38.5202C164.249 38.5202 165.129 38.3402 165.889 37.9802C166.689 37.5802 167.389 37.1402 167.989 36.6602C168.629 36.1402 169.169 35.7002 169.609 35.3402V37.8002C168.849 38.5202 167.969 39.2802 166.969 40.0802C165.969 40.8402 164.849 41.5002 163.609 42.0602C162.409 42.5802 161.029 42.8402 159.469 42.8402ZM213.836 42.9602C209.756 42.9602 206.256 42.1802 203.336 40.6202C200.456 39.0602 198.256 36.8002 196.736 33.8402C195.216 30.8402 194.456 27.2402 194.456 23.0402C194.456 18.7202 195.236 14.9802 196.796 11.8202C198.356 8.66023 200.596 6.22023 203.516 4.50023C206.476 2.78023 209.996 1.92023 214.076 1.92023C216.196 1.92023 217.896 2.10023 219.176 2.46023C220.456 2.82023 221.476 3.20023 222.236 3.60023C223.036 3.96023 223.736 4.14023 224.336 4.14023C224.776 4.14023 225.076 4.06023 225.236 3.90023C225.436 3.70023 225.576 3.50023 225.656 3.30023L225.956 2.64023H227.456L228.056 14.1002H226.556C226.356 13.0202 225.996 11.9002 225.476 10.7402C224.956 9.58023 224.236 8.52023 223.316 7.56023C222.436 6.60023 221.336 5.82023 220.016 5.22023C218.696 4.62023 217.116 4.32023 215.276 4.32023C213.116 4.32023 211.276 4.74023 209.756 5.58023C208.276 6.42023 207.056 7.52023 206.096 8.88023C205.176 10.2402 204.456 11.7402 203.936 13.3802C203.456 14.9802 203.116 16.5802 202.916 18.1802C202.756 19.7402 202.676 21.1402 202.676 22.3802C202.676 24.6602 202.916 26.8802 203.396 29.0402C203.876 31.2002 204.616 33.1402 205.616 34.8602C206.616 36.5802 207.896 37.9602 209.456 39.0002C211.056 40.0002 212.936 40.5002 215.096 40.5002C215.816 40.5002 216.536 40.4402 217.256 40.3202C217.976 40.2002 218.656 40.0602 219.296 39.9002C219.976 39.7002 220.576 39.4802 221.096 39.2402V29.5802C221.096 28.2602 220.836 27.3602 220.316 26.8802C219.836 26.3602 218.696 26.1002 216.896 26.1002H215.816V24.2402H231.956V26.1002H230.816C229.776 26.1002 229.116 26.3602 228.836 26.8802C228.556 27.4002 228.416 28.3002 228.416 29.5802V42.2402H226.856C226.696 41.6402 226.456 41.2002 226.136 40.9202C225.816 40.6002 225.396 40.4402 224.876 40.4402C224.356 40.4402 223.816 40.5802 223.256 40.8602C222.696 41.1002 222.016 41.3802 221.216 41.7002C220.456 42.0202 219.476 42.3002 218.276 42.5402C217.116 42.8202 215.636 42.9602 213.836 42.9602ZM233.368 42.2402V40.2602C234.568 40.2602 235.428 40.1802 235.948 40.0202C236.508 39.8202 236.848 39.5002 236.968 39.0602C237.128 38.6202 237.208 38.0202 237.208 37.2602V19.9202C237.208 18.8002 237.088 18.0602 236.848 17.7002C236.648 17.3402 236.208 17.1602 235.528 17.1602H233.728V15.1202L242.548 13.7402H244.228V37.2602C244.228 38.1002 244.308 38.7402 244.468 39.1802C244.628 39.5802 244.968 39.8602 245.488 40.0202C246.048 40.1802 246.908 40.2602 248.068 40.2602V42.2402H233.368ZM240.508 9.72023C239.348 9.72023 238.408 9.36023 237.688 8.64023C236.968 7.88023 236.608 6.94023 236.608 5.82023C236.608 4.70023 236.968 3.76023 237.688 3.00023C238.408 2.24023 239.348 1.86023 240.508 1.86023C241.348 1.86023 242.048 2.04023 242.608 2.40023C243.208 2.76023 243.668 3.24023 243.988 3.84023C244.308 4.40023 244.468 5.06023 244.468 5.82023C244.468 6.94023 244.088 7.88023 243.328 8.64023C242.608 9.36023 241.668 9.72023 240.508 9.72023ZM250.749 42.2402V40.2602C251.949 40.2602 252.809 40.1802 253.329 40.0202C253.889 39.8602 254.229 39.5602 254.349 39.1202C254.509 38.6802 254.589 38.0602 254.589 37.2602V16.4402H250.749V14.0402H254.589V10.3802C254.589 8.22023 255.009 6.36023 255.849 4.80023C256.689 3.24023 257.869 2.06023 259.389 1.26023C260.949 0.420232 262.749 0.000231028 264.789 0.000231028C267.349 0.000231028 269.249 0.560231 270.489 1.68023C271.769 2.80023 272.409 4.12023 272.409 5.64023C272.409 6.56023 272.149 7.32023 271.629 7.92023C271.149 8.48023 270.369 8.76023 269.289 8.76023C268.289 8.76023 267.509 8.50023 266.949 7.98023C266.429 7.46023 266.169 6.74023 266.169 5.82023C266.169 5.30023 266.229 4.90023 266.349 4.62023C266.509 4.34023 266.649 4.10023 266.769 3.90023C266.889 3.66023 266.949 3.42023 266.949 3.18023C266.949 2.90023 266.769 2.64023 266.409 2.40023C266.049 2.12023 265.569 1.98023 264.969 1.98023C264.209 1.98023 263.569 2.18023 263.049 2.58023C262.569 2.98023 262.209 3.58023 261.969 4.38023C261.729 5.18023 261.609 6.18023 261.609 7.38023V14.0402H268.389V16.4402H261.609V37.2602C261.609 38.1002 261.689 38.7402 261.849 39.1802C262.049 39.6202 262.489 39.9202 263.169 40.0802C263.849 40.2002 264.929 40.2602 266.409 40.2602V42.2402H250.749ZM278.003 42.9002C276.563 42.9002 275.303 42.6402 274.223 42.1202C273.183 41.5602 272.383 40.7602 271.823 39.7202C271.263 38.6402 270.983 37.3602 270.983 35.8802V16.4402H267.443V14.4602C268.883 14.0202 270.103 13.3802 271.103 12.5402C272.103 11.7002 272.943 10.6202 273.623 9.30023C274.343 7.98023 274.923 6.42023 275.363 4.62023H277.883V14.0402H284.303V16.4402H277.883V33.7802C277.883 35.5802 278.223 36.9202 278.903 37.8002C279.583 38.6802 280.643 39.1202 282.083 39.1202C282.563 39.1202 283.083 39.0602 283.643 38.9402C284.203 38.8202 284.683 38.6802 285.083 38.5202L285.743 40.0202C285.143 40.4202 284.463 40.8402 283.703 41.2802C282.943 41.7202 282.103 42.1002 281.183 42.4202C280.263 42.7402 279.203 42.9002 278.003 42.9002Z" fill="#4A3F3F"/>
</svg>
